<?xml version="1.0" encoding="UTF-8"?><svg version="1.1" width="4300px" height="960px" viewBox="0 0 4300.0 960.0" xmlns="http://www.w3.org/2000/svg" xmlns:xlink="http://www.w3.org/1999/xlink"><defs><clipPath id="i0"><path d="M8685,0 L8685,10000 L0,10000 L0,0 L8685,0 Z"></path></clipPath><clipPath id="i1"><path d="M200,0 L200,460 L0,460 L0,0 L200,0 Z"></path></clipPath><clipPath id="i2"><path d="M640,0 L640,200 L0,200 L0,0 L640,0 Z"></path></clipPath><clipPath id="i3"><path d="M200,0 L200,200 L0,200 L0,0 L200,0 Z"></path></clipPath><clipPath id="i4"><path d="M0,0 L200,200 L200,760 L0,960 L0,0 Z"></path></clipPath><clipPath id="i5"><path d="M0,0 L200,200 L0,200 L0,0 Z"></path></clipPath><clipPath id="i6"><path d="M200,0 L0,200 L0,0 L200,0 Z"></path></clipPath><clipPath id="i7"><path d="M637,0 L637,878 L0,878 L0,0 L637,0 Z"></path></clipPath><clipPath id="i8"><path d="M46.6666667,653.333333 L46.6666667,676.666667 L23.3333333,676.666667 L23.3333333,653.333333 L46.6666667,653.333333 Z M630,606.666667 L630,676.666667 L606.666667,676.666667 L606.666667,606.666667 L630,606.666667 Z M23.3333333,560 L23.3333333,653.333333 L0,653.333333 L0,560 L23.3333333,560 Z M256.666667,630 L256.666667,653.333333 L116.666667,653.333333 L116.666667,630 L256.666667,630 Z M116.666667,606.666667 L116.666667,630 L93.3333333,630 L93.3333333,606.666667 L116.666667,606.666667 Z M373.333333,606.666667 L373.333333,630 L256.666667,630 L256.666667,606.666667 L373.333333,606.666667 Z M93.3333333,583.333333 L93.3333333,606.666667 L70,606.666667 L70,583.333333 L93.3333333,583.333333 Z M420,583.333333 L420,606.666667 L373.333333,606.666667 L373.333333,583.333333 L420,583.333333 Z M653.333333,536.666667 L653.333333,606.666667 L630,606.666667 L630,536.666667 L653.333333,536.666667 Z M70,560 L70,583.333333 L46.6666667,583.333333 L46.6666667,560 L70,560 Z M466.666667,560 L466.666667,583.333333 L420,583.333333 L420,560 L466.666667,560 Z M46.6666667,490 L46.6666667,560 L23.3333333,560 L23.3333333,490 L46.6666667,490 Z M490,536.666667 L490,560 L466.666667,560 L466.666667,536.666667 L490,536.666667 Z M630,466.666667 L630,536.666667 L606.666667,536.666667 L606.666667,466.666667 L630,466.666667 Z M23.3333333,280 L23.3333333,490 L0,490 L0,280 L23.3333333,280 Z M163.333333,443.333333 L163.333333,466.666667 L210,466.666667 L210,490 L116.666667,490 L116.666667,466.666667 L70,466.666667 L70,443.333333 L163.333333,443.333333 Z M606.666667,373.333333 L606.666667,466.666667 L583.333333,466.666667 L583.333333,373.333333 L606.666667,373.333333 Z M140,326.666667 L140,350 L163.333333,350 L163.333333,396.666667 L70,396.666667 L70,350 L93.3333333,350 L93.3333333,326.666667 L140,326.666667 Z M583.333333,326.666667 L583.333333,373.333333 L560,373.333333 L560,326.666667 L583.333333,326.666667 Z M560,303.333333 L560,326.666667 L536.666667,326.666667 L536.666667,303.333333 L560,303.333333 Z M278.833333,256.666667 L278.833333,280 L302.166667,280 L302.166667,256.666667 L280,256.666667 L280,233.333333 L326.666667,233.333333 L326.666667,256.666667 L350,256.666667 L350,303.333333 L256.666667,303.333333 L256.666667,280 L233.333333,280 L233.333333,256.666667 L278.833333,256.666667 Z M46.6666667,210 L46.6666667,280 L23.3333333,280 L23.3333333,210 L46.6666667,210 Z M536.666667,233.333333 L536.666667,280 L513.333333,280 L513.333333,233.333333 L536.666667,233.333333 Z M163.333333,210 L163.333333,256.666667 L140,256.666667 L140,280 L116.666667,280 L116.666667,256.666667 L93.3333333,256.666667 L93.3333333,233.333333 L116.666667,233.333333 L116.666667,210 L163.333333,210 Z M513.333333,210 L513.333333,233.333333 L490,233.333333 L490,210 L513.333333,210 Z M490,140 L490,210 L466.666667,210 L466.666667,186.666667 L443.333333,186.666667 L443.333333,163.333333 L466.666667,163.333333 L466.666667,140 L490,140 Z M70,186.666667 L70,210 L46.6666667,210 L46.6666667,186.666667 L70,186.666667 Z M93.3333333,163.333333 L93.3333333,186.666667 L70,186.666667 L70,163.333333 L93.3333333,163.333333 Z M443.333333,140 L443.333333,163.333333 L420,163.333333 L420,140 L443.333333,140 Z M116.666667,140 L116.666667,163.333333 L93.3333333,163.333333 L93.3333333,140 L116.666667,140 Z M210,116.666667 L210,140 L163.333333,140 L163.333333,116.666667 L210,116.666667 Z M140,116.666667 L140,140 L116.666667,140 L116.666667,116.666667 L140,116.666667 Z M420,93.3333333 L420,116.666667 L280,116.666667 L280,93.3333333 L420,93.3333333 Z M163.333333,93.3333333 L163.333333,116.666667 L140,116.666667 L140,93.3333333 L163.333333,93.3333333 Z M233.333333,93.3333333 L233.333333,116.666667 L210,116.666667 L210,93.3333333 L233.333333,93.3333333 Z M186.666667,23.3333333 L186.666667,93.3333333 L163.333333,93.3333333 L163.333333,23.3333333 L186.666667,23.3333333 Z M280,70 L280,93.3333333 L233.333333,93.3333333 L233.333333,70 L280,70 Z M443.333333,70 L443.333333,93.3333333 L420,93.3333333 L420,70 L443.333333,70 Z M233.333333,23.3333333 L233.333333,70 L210,70 L210,23.3333333 L233.333333,23.3333333 Z M466.666667,46.6666667 L466.666667,70 L443.333333,70 L443.333333,46.6666667 L466.666667,46.6666667 Z M536.666667,23.3333333 L536.666667,70 L513.333333,70 L513.333333,23.3333333 L536.666667,23.3333333 Z M490,23.3333333 L490,46.6666667 L466.666667,46.6666667 L466.666667,23.3333333 L490,23.3333333 Z M210,0 L210,23.3333333 L186.666667,23.3333333 L186.666667,0 L210,0 Z M513.333333,0 L513.333333,23.3333333 L490,23.3333333 L490,0 L513.333333,0 Z M536.666667,210 L536.666667,70 L560,70 L560,209.999 L583.333333,210 L583.333333,303.333333 L560,303.333333 L560,210 L536.666667,210 Z"></path></clipPath><clipPath id="i9"><path d="M116.666667,93.3333333 L116.666667,116.666667 L23.3333333,116.666667 L23.3333333,93.3333333 L116.666667,93.3333333 Z M23.3333333,70 L23.3333333,93.3333333 L0,93.3333333 L0,70 L23.3333333,70 Z M163.333333,70 L163.333333,93.3333333 L116.666667,93.3333333 L116.666667,70 L163.333333,70 Z M186.666667,46.6666667 L186.666667,70 L163.333333,70 L163.333333,46.6666667 L186.666667,46.6666667 Z M93.3333333,0 L93.3333333,23.3333333 L70,23.3333333 L70,0 L93.3333333,0 Z M46.6666667,0 L46.6666667,23.3333333 L0,23.3333333 L0,0 L46.6666667,0 Z"></path></clipPath><clipPath id="i10"><path d="M466.666667,0 L466.666667,46.6666667 L490,46.6666667 L490,186.666667 L513.333333,186.666667 L513.333333,280 L490,280 L490,303.333333 L513.333333,303.333333 L513.333333,350 L536.666667,350 L536.666667,443.333333 L560,443.333333 L560,513.333333 L583.333333,513.333333 L583.333333,536.666667 L560,536.666667 L560,560 L513.333333,560 L513.333333,583.333333 L490,583.333333 L490,606.666667 L466.666667,606.666667 L466.666667,630 L396.666667,630 L396.666667,606.666667 L420,606.666667 L420,583.333333 L443.333333,583.333333 L443.333333,560 L420,560 L420,536.666667 L443.333333,536.666667 L443.333333,513.333333 L466.666667,513.333333 L466.666667,490 L490,490 L490,420 L443.333333,420 L443.333333,396.666667 L466.666667,396.666667 L466.666667,373.333333 L490,373.333333 L490,350 L466.666667,350 L466.666667,280 L443.333333,280 L443.333333,256.666667 L350,256.666667 L350,280 L326.666667,280 L326.666667,303.333333 L186.666667,303.333333 L186.666667,350 L163.333333,350 L163.333333,326.666667 L93.3333333,326.666667 L93.3333333,303.333333 L70,303.333333 L70,280 L46.6666667,280 L46.6666667,233.333333 L70,233.333333 L70,256.666667 L93.3333333,256.666667 L93.3333333,233.333333 L116.666667,233.333333 L116.666667,210 L140,210 L140,186.666667 L163.333333,186.666667 L163.333333,93.3333333 L186.666667,93.3333333 L186.666667,70 L233.333333,70 L233.333333,93.3333333 L373.333333,93.3333333 L373.333333,70 L396.666667,70 L396.666667,46.6666667 L420,46.6666667 L420,23.3333333 L443.333333,23.3333333 L443.333333,0 L466.666667,0 Z M373.333333,606.666667 L373.333333,630 L350,630 L350,606.666667 L373.333333,606.666667 Z M23.3333333,560 L23.3333333,583.333333 L0,583.333333 L0,560 L23.3333333,560 Z M256.666667,163.333333 L233.333333,163.333333 L233.333333,186.666667 L210,186.666667 L210,233.333333 L186.666667,233.333333 L186.666667,256.666667 L210,256.666667 L210,280 L303.333333,280 L303.333333,233.333333 L280,233.333333 L280,186.666667 L256.666667,186.666667 L256.666667,163.333333 Z M490,210 L466.666667,210 L466.666667,256.666667 L490,256.666667 L490,210 Z M466.666667,186.666667 L443.333333,186.666667 L443.333333,210 L466.666667,210 L466.666667,186.666667 Z M443.333333,116.666667 L420,116.666667 L420,140 L396.666667,140 L396.666667,163.333333 L420,163.333333 L420,186.666667 L443.333333,186.666667 L443.333333,116.666667 Z M396.666667,116.666667 L373.333333,116.666667 L373.333333,140 L396.666667,140 L396.666667,116.666667 Z M163.333333,0 L163.333333,46.6666667 L186.666667,46.6666667 L186.666667,70 L163.333333,70 L163.333333,93.3333333 L116.666667,93.3333333 L116.666667,70 L140,70 L140,0 L163.333333,0 Z"></path></clipPath><clipPath id="i11"><path d="M513.333333,256.666667 L513.333333,280 L490,280 L490,303.333333 L466.666667,303.333333 L466.666667,326.666667 L513.333333,326.666667 L513.333333,396.666667 L490,396.666667 L490,420 L443.333333,420 L443.333333,443.333333 L396.666667,443.333333 L396.666667,466.666667 L350,466.666667 L350,490 L233.333333,490 L233.333333,513.333333 L93.3333333,513.333333 L93.3333333,490 L70,490 L70,466.666667 L46.6666667,466.666667 L46.6666667,443.333333 L23.3333333,443.333333 L23.3333333,373.333333 L0,373.333333 L0,303.333333 L23.3333333,303.333333 L23.3333333,326.666667 L46.6666667,326.666667 L46.6666667,350 L70,350 L70,373.333333 L93.3333333,373.333333 L93.3333333,396.666667 L186.666667,396.666667 L186.666667,373.333333 L233.333333,373.333333 L233.333333,350 L256.666667,350 L256.666667,326.666667 L303.333333,326.666667 L303.333333,303.333333 L326.666667,303.333333 L326.666667,326.666667 L350,326.666667 L350,303.333333 L420,303.333333 L420,280 L466.666667,280 L466.666667,256.666667 L513.333333,256.666667 Z M350,280 L350,303.333333 L326.666667,303.333333 L326.666667,280 L350,280 Z M46.6666667,93.3333333 L46.6666667,140 L23.3333333,140 L23.3333333,93.3333333 L46.6666667,93.3333333 Z M140,0 L140,23.3333333 L186.666667,23.3333333 L186.666667,46.6666667 L140,46.6666667 L140,70 L116.666667,70 L116.666667,93.3333333 L46.6666667,93.3333333 L46.6666667,70 L70,70 L70,46.6666667 L93.3333333,46.6666667 L93.3333333,23.3333333 L116.666667,23.3333333 L116.666667,0 L140,0 Z"></path></clipPath><clipPath id="i12"><path d="M208.833333,46.6666667 L208.833333,70 L185.5,70 L185.5,46.6666667 L208.833333,46.6666667 Z M23.3333333,0 L23.3333333,23.3333333 L0,23.3333333 L0,0 L23.3333333,0 Z"></path></clipPath><clipPath id="i13"><path d="M70,46.6666667 L70,140 L93.3333333,140 L93.3333333,163.333333 L70,163.333333 L70,186.666667 L46.6666667,186.666667 L46.6666667,233.333333 L70,233.333333 L70,256.666667 L116.666667,256.666667 L116.666667,233.333333 L140,233.333333 L140,186.666667 L186.666667,186.666667 L186.666667,210 L210,210 L210,163.333333 L350,163.333333 L350,140 L373.333333,140 L373.333333,116.666667 L466.666667,116.666667 L466.666667,140 L490,140 L490,210 L466.666667,210 L466.666667,233.333333 L420,233.333333 L420,256.666667 L350,256.666667 L350,233.333333 L326.666667,233.333333 L326.666667,256.666667 L303.333333,256.666667 L303.333333,280 L233.333333,280 L233.333333,303.333333 L140,303.333333 L140,280 L23.3333333,280 L23.3333333,256.666667 L0,256.666667 L0,116.666667 L23.3333333,116.666667 L23.3333333,93.3333333 L46.6666667,93.3333333 L46.6666667,46.6666667 L70,46.6666667 Z M350,256.666667 L350,280 L326.666667,280 L326.666667,256.666667 L350,256.666667 Z M163.333333,233.333333 L140,233.333333 L140,256.666667 L163.333333,256.666667 L163.333333,233.333333 Z M280,23.3333333 L280,46.6666667 L303.333333,46.6666667 L303.333333,70 L256.666667,70 L256.666667,93.3333333 L233.333333,93.3333333 L233.333333,46.6666667 L256.666667,46.6666667 L256.666667,23.3333333 L280,23.3333333 Z M186.666667,0 L186.666667,46.6666667 L163.333333,46.6666667 L163.333333,70 L140,70 L140,46.6666667 L116.666667,46.6666667 L116.666667,23.3333333 L140,23.3333333 L140,0 L186.666667,0 Z M396.666667,490 L396.666667,466.666667 L373.333333,466.666667 L373.333333,490 L396.666667,490 Z M93.3333333,466.666667 L93.3333333,490 L233.333333,490 L233.333333,466.666667 L350,466.666667 L350,443.333333 L396.666667,443.333333 L396.666667,420 L466.666667,420 L466.666667,443.333333 L443.333333,443.333333 L443.333333,466.666667 L420,466.666667 L420,490 L490,490 L490,466.666667 L513.333333,466.666667 L513.333333,443.333333 L536.666667,443.333333 L536.666667,420 L583.333333,420 L583.333333,396.666667 L606.666667,396.666667 L606.666667,420 L606.666667,443.333333 L583.333333,443.333333 L583.333333,466.666667 L583.333333,490 L583.333333,513.333333 L93.3333333,513.333333 L70,513.333333 L46.6666667,513.333333 L23.3333333,513.333333 L23.333,489.999 L0,490 L0,396.666667 L23.3333333,396.666667 L23.3333333,443.333333 L46.6666667,443.333333 L70,443.333333 L70,466.666667 L93.3333333,466.666667 Z"></path></clipPath><clipPath id="i14"><path d="M23.3333333,210 L23.3333333,233.333333 L0,233.333333 L0,210 L23.3333333,210 Z M560,93.3333333 L560,233.333333 L536.666667,233.333333 L536.666667,93.3333333 L560,93.3333333 Z M46.6666667,186.666667 L46.6666667,210 L23.3333333,210 L23.3333333,186.666667 L46.6666667,186.666667 Z M70,163.333333 L70,186.666667 L46.6666667,186.666667 L46.6666667,163.333333 L70,163.333333 Z M93.3333333,140 L93.3333333,163.333333 L70,163.333333 L70,140 L93.3333333,140 Z M116.666667,116.666667 L116.666667,140 L93.3333333,140 L93.3333333,116.666667 L116.666667,116.666667 Z M140,46.6666667 L140,116.666667 L116.666667,116.666667 L116.666667,46.6666667 L140,46.6666667 Z M396.666667,93.3333333 L396.666667,70 L416.5,70 L416.5,46.6666667 L443.333333,46.6666667 L443.333333,70 L420,70 L420,93.3333333 L396.666667,93.3333333 Z M536.666667,46.6666667 L536.666667,93.3333333 L513.333333,93.3333333 L513.333333,46.6666667 L536.666667,46.6666667 Z M163.333333,23.3333333 L163.333333,46.6666667 L140,46.6666667 L140,23.3333333 L163.333333,23.3333333 Z M210,23.3333333 L210,46.6666667 L186.666667,46.6666667 L186.666667,23.3333333 L210,23.3333333 Z M466.666667,23.3333333 L466.666667,46.6666667 L443.333333,46.6666667 L443.333333,23.3333333 L466.666667,23.3333333 Z M513.333333,23.3333333 L513.333333,46.6666667 L490,46.6666667 L490,23.3333333 L513.333333,23.3333333 Z M186.666667,0 L186.666667,23.3333333 L163.333333,23.3333333 L163.333333,0 L186.666667,0 Z M490,0 L490,23.3333333 L466.666667,23.3333333 L466.666667,0 L490,0 Z M256.666667,93.3333333 L210,93.3333333 L210,46.6666667 L233.333333,46.6666667 L233.333333,70 L256.666667,70 L256.666667,93.3333333 Z M396.666667,93.3333333 L396.666667,116.666667 L256.666667,116.666667 L256.666667,93.3333333 L396.666667,93.3333333 Z"></path></clipPath><clipPath id="i15"><path d="M23.3333333,70 L23.3333333,233.333333 L0,233.333333 L0,70 L23.3333333,70 Z M653.333333,163.333333 L653.333333,233.333333 L630,233.333333 L630,163.333333 L653.333333,163.333333 Z M630,116.666667 L630,163.333333 L606.666667,163.333333 L606.666667,116.666667 L630,116.666667 Z M606.666667,93.3333333 L606.666667,116.666667 L583.333333,116.666667 L583.333333,93.3333333 L606.666667,93.3333333 Z M630,0 L630,93.3333333 L606.666667,93.3333333 L606.666667,0 L630,0 Z M46.6666667,0 L46.6666667,70 L23.3333333,70 L23.3333333,0 L46.6666667,0 Z"></path></clipPath><clipPath id="i16"><path d="M46.6666667,210 L46.6666667,233.333333 L23.3333333,233.333333 L23.3333333,210 L46.6666667,210 Z M676.666667,163.333333 L676.666667,233.333333 L653.333333,233.333333 L653.333333,163.333333 L676.666667,163.333333 Z M23.3333333,116.666667 L23.3333333,210 L0,210 L0,116.666667 L23.3333333,116.666667 Z M700,93.3333333 L700,163.333333 L676.666667,163.333333 L676.666667,93.3333333 L700,93.3333333 Z M46.6666667,46.6666667 L46.6666667,116.666667 L23.3333333,116.666667 L23.3333333,46.6666667 L46.6666667,46.6666667 Z M676.666667,23.3333333 L676.666667,93.3333333 L653.333333,93.3333333 L653.333333,23.3333333 L676.666667,23.3333333 Z M23.3333333,0 L23.3333333,46.6666667 L0,46.6666667 L0,0 L23.3333333,0 Z M653.333333,0 L653.333333,23.3333333 L630,23.3333333 L630,0 L653.333333,0 Z"></path></clipPath><clipPath id="i17"><path d="M190,0 C372.253965,0 520,147.746032 520,330 C520,512.253965 372.253965,660 190,660 L0,660 L0,0 L190,0 Z M990,0 L990,160 L920,160 C855.033655,160 798.578825,196.442129 769.962175,249.99972 L990,250 L990,410 L769.96466,410.004935 C798.168505,462.78599 853.40959,498.943145 917.18874,499.977225 L920,500 L990,500 L990,660 L920,660 C737.746035,660 590,512.253965 590,330 C590,147.746032 737.746035,0 920,0 L990,0 Z M1390,0 C1490.22298,0 1580.0108,44.6782855 1640.53286,115.204282 L1528.23951,231.034073 C1497.39226,188.021887 1446.96857,160 1390,160 C1296.1116,160 1220,236.111593 1220,330 C1220,423.888405 1296.1116,500 1390,500 C1456.47059,500 1514.03095,461.850755 1541.9806,406.25274 L1375,406.25 L1375,256.25 L1711.72836,256.252006 C1717.14119,279.963768 1720,304.648029 1720,330 C1720,512.253965 1572.25397,660 1390,660 C1207.74604,660 1060,512.253965 1060,330 C1060,147.746032 1207.74604,0 1390,0 Z M2120,0 C2302.25397,0 2450,147.746032 2450,330 C2450,512.253965 2302.25397,660 2120,660 C1937.74604,660 1790,512.253965 1790,330 C1790,147.746032 1937.74604,0 2120,0 Z M190,160 L160,160 L160,500 L190,500 C283.888405,500 360,423.888405 360,330 C360,237.050476 285.40303,161.52401 192.81126,160.022775 L190,160 Z M2120,160 C2026.1116,160 1950,236.111593 1950,330 C1950,423.888405 2026.1116,500 2120,500 C2213.88841,500 2290,423.888405 2290,330 C2290,236.111593 2213.88841,160 2120,160 Z"></path></clipPath><clipPath id="i18"><path d="M706,0 L706,228 L0,228 L0,0 L706,0 Z"></path></clipPath><linearGradient id="i19" x1="0px" y1="0px" x2="706px" y2="0.00943803274px" gradientUnits="userSpaceOnUse"><stop stop-color="#FF5174" offset="0%"></stop><stop stop-color="#FFD766" offset="49.8880033%"></stop><stop stop-color="#21D99C" offset="100%"></stop></linearGradient><clipPath id="i20"><path d="M39.916318,0 L39.916318,140.083682 L127.483886,140.083682 L127.483886,180 L0,180 L0,0 L39.916318,0 Z M211.275585,0 C221.306745,0 230.725499,1.90115943 239.533803,5.69420875 C248.332306,9.48303813 256.013499,14.6633086 262.580557,21.2303667 C269.147615,27.7974249 274.327886,35.4786175 278.116715,44.2771213 C281.909764,53.0854247 283.810924,62.5041786 283.810924,72.5353387 L283.810924,180 L243.894606,180 L243.894606,144.948547 L178.656565,144.948547 L178.656565,180 L138.862377,180 L138.862377,72.5353387 C138.862377,62.5041786 140.763536,53.0854247 144.556586,44.2771213 C148.344531,35.4806716 153.502737,27.8014122 160.026157,21.2359061 C166.553314,14.6666379 174.215859,9.48433226 183.017368,5.69420875 C191.825671,1.90115943 201.244425,0 211.275585,0 Z M399.356553,0 C406.948967,0 414.070877,1.45485376 420.724311,4.35506839 C427.360719,7.2478617 433.166059,11.1848606 438.143149,16.1619511 C443.120239,21.1390415 447.057238,26.9443809 449.950032,33.5807891 C452.850246,40.2342226 454.3051,47.3561334 454.3051,54.9485469 C454.3051,58.4055042 453.833038,61.9494365 452.8823,65.5795274 C451.941992,69.1697927 450.617267,72.6319418 448.907608,75.9657776 C447.186704,79.3215389 445.12072,82.3754743 442.711515,85.1288515 C441.145592,86.9184776 439.471386,88.5100257 437.690226,89.9050731 C439.536305,91.2579585 441.255531,92.8561036 442.845885,94.7020501 C445.25046,97.4930745 447.312157,100.56281 449.029738,103.912092 C450.744286,107.25546 452.051592,110.748863 452.951729,114.392275 C453.856144,118.053003 454.3051,121.606314 454.3051,125.051453 C454.3051,132.643867 452.850246,139.765777 449.950032,146.419211 C447.057238,153.055619 443.120239,158.860958 438.143149,163.838049 C433.166059,168.815139 427.360719,172.752138 420.724311,175.644932 C414.070877,178.545146 406.948967,180 399.356553,180 L309.356553,180 L309.356553,0 L399.356553,0 Z M603.426439,0 L603.426439,39.916318 L520.632138,39.916318 C518.528866,39.916318 516.564174,40.2960011 514.740603,41.0675117 C512.918437,41.8384283 511.322704,42.9054688 509.955882,44.2722907 C508.58906,45.6391127 507.52202,47.2348452 506.751103,49.0570119 C505.979593,50.8805822 505.59991,52.8452743 505.59991,54.9485469 C505.59991,57.0604693 505.982901,59.0503317 506.757487,60.9163798 C507.527147,62.7705597 508.591137,64.3821884 509.955882,65.7469335 C511.322704,67.1137555 512.918437,68.1807959 514.740603,68.9517126 C516.564174,69.7232231 518.528866,70.1029063 520.632138,70.1029063 L555.683592,70.1029063 C563.268791,70.1029063 570.405398,71.5346008 577.095191,74.3894807 C583.779774,77.2421372 589.611068,81.1614766 594.592318,86.1427268 C599.573568,91.123977 603.492908,96.9552703 606.345564,103.639853 C609.200444,110.329647 610.632138,117.466254 610.632138,125.051453 C610.632138,132.639592 609.199303,139.757477 606.343351,146.407157 C603.491142,153.04812 599.572833,158.857533 594.592318,163.838049 C589.614469,168.815897 583.787232,172.753935 577.107204,175.647196 C570.413658,178.546311 563.273036,180 555.683592,180 L475.454031,180 L475.454031,140.083682 L555.683592,140.083682 C557.786864,140.083682 559.751556,139.703999 561.575127,138.932488 C563.397293,138.161572 564.993026,137.094531 566.359848,135.727709 C567.72667,134.360887 568.79371,132.765155 569.564627,130.942988 C570.336137,129.119418 570.71582,127.154726 570.71582,125.051453 C570.71582,122.948181 570.336137,120.983489 569.564627,119.159918 C568.79371,117.337751 567.72667,115.742019 566.359848,114.375197 C564.993026,113.008375 563.397293,111.941335 561.575127,111.170418 C559.751556,110.398907 557.786864,110.019224 555.683592,110.019224 L520.632138,110.019224 C513.039725,110.019224 505.917814,108.56437 499.264381,105.664156 C492.627972,102.771363 486.822633,98.8343637 481.845543,93.8572732 C476.867694,88.8794248 472.929656,83.052187 470.036396,76.3721596 C467.13728,69.678613 465.683592,62.5379913 465.683592,54.9485469 C465.683592,47.3561334 467.138445,40.2342226 470.03866,33.5807891 C472.931453,26.9443809 476.868452,21.1390415 481.845543,16.1619511 C486.822633,11.1848606 492.627972,7.2478617 499.264381,4.35506839 C505.917814,1.45485376 513.039725,0 520.632138,0 L603.426439,0 Z M399.356553,110.019224 L349.272871,110.019224 L349.272871,140.083682 L399.356553,140.083682 C401.459826,140.083682 403.424518,139.703999 405.248088,138.932488 C407.070255,138.161572 408.665987,137.094531 410.032809,135.727709 C411.399631,134.360887 412.466672,132.765155 413.237588,130.942988 C414.009099,129.119418 414.388782,127.154726 414.388782,125.051453 C414.388782,122.948181 414.009099,120.983489 413.237588,119.159918 C412.466672,117.337751 411.399631,115.742019 410.032809,114.375197 C408.665987,113.008375 407.070255,111.941335 405.248088,111.170418 C403.424518,110.398907 401.459826,110.019224 399.356553,110.019224 Z M211.275585,39.916318 C206.810261,39.916318 202.590009,40.7645259 198.616217,42.46758 C194.633905,44.1742849 191.161653,46.5042669 188.203083,49.4628369 C185.244513,52.421407 182.914531,55.8936587 181.207826,59.8759702 C179.504772,63.849763 178.656565,68.0700143 178.656565,72.5353387 L178.656565,105.154359 L243.894606,105.154359 L243.894606,72.5353387 C243.894606,68.0700143 243.046398,63.849763 241.343344,59.8759702 C239.636639,55.8936587 237.306657,52.421407 234.348087,49.4628369 C231.389517,46.5042669 227.917265,44.1742849 223.934954,42.46758 C219.961161,40.7645259 215.74091,39.916318 211.275585,39.916318 Z M399.356553,39.916318 L349.272871,39.916318 L349.272871,70.1029063 L399.356553,70.1029063 C401.459826,70.1029063 403.424518,69.7232231 405.248088,68.9517126 C407.070255,68.1807959 408.665987,67.1137555 410.032809,65.7469335 C411.397554,64.3821884 412.461545,62.7705597 413.231205,60.9163798 C414.005791,59.0503317 414.388782,57.0604693 414.388782,54.9485469 C414.388782,52.8452743 414.009099,50.8805822 413.237588,49.0570119 C412.466672,47.2348452 411.399631,45.6391127 410.032809,44.2722907 C408.665987,42.9054688 407.070255,41.8384283 405.248088,41.0675117 C403.424518,40.2960011 401.459826,39.916318 399.356553,39.916318 Z"></path></clipPath></defs><g transform="translate(-3997.0 -2066.0)"><g clip-path="url(#i0)"><g transform="translate(3997.0 2066.0)"><g transform="translate(0.0 400.0)"><g clip-path="url(#i1)"><polygon points="0,0 200,0 200,460 0,460 0,0" stroke="none" fill="#20D99D"></polygon></g></g><g clip-path="url(#i2)"><polygon points="0,0 640,0 640,200 0,200 0,0" stroke="none" fill="#4F4F4F"></polygon></g><g clip-path="url(#i3)"><polygon points="0,0 200,0 200,200 0,200 0,0" stroke="none" fill="#FF5174"></polygon></g><g transform="translate(0.0 200.0)"><g clip-path="url(#i3)"><polygon points="0,0 200,0 200,200 0,200 0,0" stroke="none" fill="#FFD766"></polygon></g></g><g transform="translate(640.0 0.0)"><g clip-path="url(#i4)"><polygon points="0,0 200,0 200,960 0,960 0,0" stroke="none" fill="#4F4F4F"></polygon></g></g><g transform="translate(640.0 0.0)"><g clip-path="url(#i5)"><polygon points="0,0 200,0 200,200 0,200 0,0" stroke="none" fill="#777777"></polygon></g></g><g transform="translate(0.0 760.0)"><g clip-path="url(#i2)"><polygon points="0,0 640,0 640,200 0,200 0,0" stroke="none" fill="#4F4F4F"></polygon></g></g><g transform="translate(640.0 760.0)"><g clip-path="url(#i6)"><polygon points="0,0 200,0 200,200 0,200 0,0" stroke="none" fill="#777777"></polygon></g></g><g transform="translate(200.0 40.0)"><g clip-path="url(#i7)"><g transform="translate(606.0 20.0) scale(-1.0 1.0)"><g transform="translate(23.333333333333314 23.333333333333314)"><g clip-path="url(#i8)"><polygon points="0,0 582.666667,0 582.666667,676.666667 0,676.666667 0,0" stroke="none" fill="#252111"></polygon></g></g><g transform="translate(116.66666666666666 420.0)"><g clip-path="url(#i9)"><polygon points="0,0 186.666667,0 186.666667,116.666667 0,116.666667 0,0" stroke="none" fill="#6E6341"></polygon></g></g><g transform="translate(70.0 46.666666666666686)"><g clip-path="url(#i10)"><polygon points="0,0 536,0 536,630 0,630 0,0" stroke="none" fill="#C09939"></polygon></g></g><g transform="translate(46.666666666666686 140.0)"><g clip-path="url(#i11)"><polygon points="0,0 513.333333,0 513.333333,513.333333 0,513.333333 0,0" stroke="none" fill="#D5B457"></polygon></g></g><g transform="translate(116.66666666666666 233.33333333333337)"><g clip-path="url(#i12)"><polygon points="0,0 208.833333,0 208.833333,70 0,70 0,0" stroke="none" fill="#F7F7E7"></polygon></g></g><g transform="translate(46.666666666666686 186.66666666666669)"><g clip-path="url(#i13)"><polygon points="0,0 559.333333,0 559.333333,513.333333 0,513.333333 0,0" stroke="none" fill="#ECD592"></polygon></g></g><g transform="translate(46.666666666666686 0.0)"><g clip-path="url(#i14)"><polygon points="0,0 559.333333,0 559.333333,233.333333 0,233.333333 0,0" stroke="none" fill="#FF5174"></polygon></g></g><g transform="translate(0.0 233.33333333333331)"><g clip-path="url(#i15)"><polygon points="0,0 606,0 606,233.333333 0,233.333333 0,0" stroke="none" fill="#FFD766"></polygon></g></g><g transform="translate(0.0 466.66666666666674)"><g clip-path="url(#i16)"><polygon points="0,0 606,0 606,233.333333 0,233.333333 0,0" stroke="none" fill="#21D99C"></polygon></g></g></g></g></g><g transform="translate(1080.0 150.0)"><g clip-path="url(#i17)"><polygon points="0,0 2450,0 2450,660 0,660 0,0" stroke="none" fill="#FFFFFF"></polygon></g><g transform="translate(2514.0 16.0)"><g clip-path="url(#i18)"><polygon points="0,0 706,0 706,228 0,228 0,0" stroke="none" fill="url(#i19)"></polygon></g><g transform="translate(47.99999999999943 24.0)"><g clip-path="url(#i20)"><polygon points="0,0 610.632138,0 610.632138,180 0,180 0,0" stroke="none" fill="#4F4F4F"></polygon></g></g></g></g></g></g></g></svg>